# xmcd
#
# Track frame offsets: 
#        150
#        11407
#        23966
#        36317
#        48521
#        60221
#        73482
#        85144
#        96580
#        109795
#        121534
#        131484
#        142378
#        153821
#        165626
#
# Disc length: 2391 seconds
#
# Revision: 1
# Processed by: cddbd v1.5.1PL2 Copyright (c) Steve Scherf et al.
# Submitted via: ExactAudioCopy v0.95a4
#
DISCID=ca09550f
DTITLE=The Drifters - The Very Best Of The Drifters [Platinum Legends]
DYEAR=2003
DGENRE=R&B
TTITLE0=This Magic Moment
TTITLE1=What'cha Gonna Do
TTITLE2=Under The Boardwalk
TTITLE3=Adorable
TTITLE4=Save The Last Dance For Me
TTITLE5=Stand By Me
TTITLE6=A Lover's Question
TTITLE7=Fools Fall In Love
TTITLE8=Spanish Harlem
TTITLE9=Nobody But Me
TTITLE10=There Goes My Baby
TTITLE11=Dance With Me
TTITLE12=Saturday Night At The Movies
TTITLE13=Up On The Roof
TTITLE14=On Broadway
EXTD=The Very Best of The Drifters
EXTT0=
EXTT1=
EXTT2=
EXTT3=
EXTT4=
EXTT5=
EXTT6=
EXTT7=
EXTT8=
EXTT9=
EXTT10=
EXTT11=
EXTT12=
EXTT13=
EXTT14=
PLAYORDER=
